# xmcd
#
# Track frame offsets:
#	150
#	22782
#	40660
#	60987
#	82530
#	97365
#	119745
#	139805
#	157457
#	173347
#	195635
#	213430
#	226535
#	244632
#	263837
#	288297
#
# Disc length: 4178 seconds
#
# Revision: 1
# Processed by: cddbd v1.5.1PL0 Copyright (c) Steve Scherf et al.
# Submitted via: CDex 1.50Beta5
#
DISCID=ce105010
DTITLE=屋久島 - 屋久島 森と水の物語
DYEAR=1900
DGENRE=
TTITLE0=朝の小鳥たち
TTITLE1=原生林の森
TTITLE2=原生林に降る雨
TTITLE3=雨の中のせせらぎ
TTITLE4=切り株の中を流れるせせらぎ
TTITLE5=原生林の森
TTITLE6=二代杉付近のせせらぎ
TTITLE7=三本足杉付近の渓流
TTITLE8=飛流のながれ
TTITLE9=朝の小鳥たち(2)
TTITLE10=屋久杉の森
TTITLE11=朝日に光り、杉の木より落ちる雫
TTITLE12=湧き出る水の流れ
TTITLE13=森を育む渓流
TTITLE14=森の静寂とせせらぎ
TTITLE15=森と水の物語(ピアノ:羽田健太郎)
EXTD=
EXTT0=
EXTT1=
EXTT2=
EXTT3=
EXTT4=
EXTT5=
EXTT6=
EXTT7=
EXTT8=
EXTT9=
EXTT10=
EXTT11=
EXTT12=
EXTT13=
EXTT14=
EXTT15=
PLAYORDER=
